<?xml version="1.0" encoding="utf-8"?>
<!-- Generator: Adobe Illustrator 28.2.0, SVG Export Plug-In . SVG Version: 6.00 Build 0)  -->
<svg version="1.1" id="Layer_1" xmlns="http://www.w3.org/2000/svg" xmlns:xlink="http://www.w3.org/1999/xlink" x="0px" y="0px"
	 viewBox="0 0 1024 1024" style="enable-background:new 0 0 1024 1024;" xml:space="preserve">
<style type="text/css">
	.st0{fill:#FFFFFF;}
	.st1{fill:#49CEDC;}
</style>
<g>
	<path d="M505.9,67.5C263.1,69.8,65.3,268.9,66.8,514.1C68.3,758.6,263.2,957,511.9,956.5c248,1.3,445-200.8,445.3-443.4
		C957.5,265.7,758,65.2,505.9,67.5z M365.1,808.1c-32.8-0.3-65.5-0.2-98.3,0c-4.8,0-6.1-1.6-6.1-6c0.1-29.1,0.2-58.2,0.2-87.3
		c0-3.8,1.2-5.5,5.2-6.9c12.1-4.2,24-9.3,35.9-14c9.5-3.7,19.1-7.2,28.6-10.9c9.5-3.7,18.9-7.6,28.4-11.2c2.1-0.8,4.4-1.4,6.7-1.8
		c3.7-0.7,5.1,1,5.1,4.7c0,20.1,0.1,40.3,0.2,60.4c0,1.3,0,2.7,0,4c0.1,0,0.1,0,0.2,0c0,21-0.1,41.9,0.1,62.9
		C371.4,806.5,370.2,808.1,365.1,808.1z M261.2,606.5c0-2.8,0.6-4.5,3.4-5.8c11.4-4.8,22.7-9.7,34-14.9c9.7-4.5,19.2-9.3,28.8-14.1
		c7.1-3.5,13.9-7.4,21-10.9c3.7-1.8,5.9-0.2,6.5,3.9c2,13.3,4.2,26.5,6,39.8c0.8,5.7,1.3,11.6,1.5,17.4c0.1,1.4-1.3,3.8-2.5,4.3
		c-8.9,3.5-18,6.6-26.9,10c-8.7,3.4-17.4,7-26.1,10.5c-9.2,3.7-18.4,7.3-27.5,11c-4.4,1.8-8.9,3.5-13.2,5.5c-3.8,1.7-5.2,1-5.2-3.2
		c0-9,0-18,0-27c0,0,0.1,0,0.1,0C261.2,624.2,261.3,615.3,261.2,606.5z M566,801.7c0,4.4-1.3,6-6.1,6c-32.6-0.2-65.2,0-97.8,0
		c-3.8,0-5.8-1.8-5.8-5.8c0.1-21.3,0-42.6,0-63.9c0.1,0,0.2,0,0.3,0c0-20.6-0.1-41.3,0.1-61.9c0-2.7,1.2-6.1,3.1-7.9
		c11.7-12,23.8-23.6,35.7-35.5c3-3.1,5.2-3.6,8.8-0.5c17.9,15.9,35.7,31.9,54.3,47c6.2,5,7.6,10.1,7.5,17.3
		C565.8,731.5,565.9,766.6,566,801.7z M638.8,561.3c-2.4,6.3-4.7,12.7-7.1,19c-2.8,7.4-5.7,14.7-8.5,22.1
		c-3.5,9.4-6.8,18.9-10.5,28.3c-3.2,8.1-6.5,16.2-10.2,24.1c-2.1,4.5-6.1,5.1-10.4,1.5c-6.6-5.6-12.7-11.7-19.2-17.4
		c-23.3-20.6-46.7-41-70-61.6c-3.5-3.1-6.4-2.5-9.5,0.7c-17.7,18.3-35.3,36.7-53.3,54.7c-7,7-14.9,13.2-22.4,19.7
		c-3.1,2.7-5.3,2-6.6-1.9c-0.6-1.7-1.6-3.3-2-5.1c-3.1-16.9-6.4-33.9-9-50.9c-2.7-17.4-4.7-34.8-7.2-52.2c-1.4-9.3-3.4-18.6-5-27.9
		c-1.4-8.5-2.3-17.1-4-25.6c-0.5-2.6-2.1-5.6-4.2-7.1c-11.3-8.1-22.7-16.1-34.4-23.6c-17.8-11.3-36-22.1-54-33.2
		c-9.7-6-19.3-12.2-28.9-18.4c-1-0.6-2.3-2.1-2.1-2.9c0.3-1.2,1.6-2.7,2.8-3.1c12.7-4.5,25.6-8.7,38.3-13.2
		c10.3-3.6,20.5-7.4,30.8-11c7.6-2.7,15.3-5.1,23-7.7c7.2-2.4,14.4-4.9,21.5-7.5c7.6-2.7,15.2-5.4,22.9-8.1
		c7.5-2.6,14.9-5.3,22.4-7.9c7.8-2.7,15.6-5.3,23.4-8c7.2-2.5,14.3-5.1,21.5-7.6c7.6-2.7,15.2-5.4,22.8-8.1
		c7.6-2.7,15.2-5.5,22.8-8.2c7.2-2.5,14.4-4.9,21.6-7.4c7.8-2.7,15.5-5.5,23.3-8.2c7-2.5,14-5,21-7.5c7.9-2.8,15.8-5.7,23.8-8.3
		c7.8-2.6,15.7-5,23.5-7.6c7.5-2.5,15-5.2,22.5-7.7c7.8-2.7,15.7-5.2,23.4-7.9c7.3-2.5,14.6-5.3,21.9-7.9c10.4-3.7,20.8-7.4,31.3-11
		c7.2-2.5,14.3-5.1,21.6-7.4c4.1-1.3,8.3-2.1,10.7-2.7c5.6,0,7,1.9,5.6,5.5c-4.7,11.8-9.6,23.5-14.1,35.3
		c-3.7,9.7-6.9,19.6-10.6,29.3c-3.5,9.2-7.5,18.3-11.1,27.5c-2.7,6.9-5,13.9-7.6,20.9c-2.4,6.6-5,13.2-7.5,19.9
		c-2.7,7.1-5.3,14.2-7.9,21.3c-2.7,7.3-5.3,14.6-8,21.8c-3.7,9.7-7.4,19.4-11.1,29.1c-3.7,9.7-7.5,19.4-11.2,29.1
		c-2.5,6.6-4.9,13.3-7.4,19.9c-2.7,7.2-5.5,14.5-8.2,21.7c-2.6,6.8-5,13.6-7.6,20.4C646.6,541.7,642.6,551.5,638.8,561.3z
		 M756.8,807.8c-33.5,0-66.9,0-100.4,0.1c-4,0-5.7-1.6-5.7-5.6c0.1-45.8,0.6-91.6-0.1-137.3c-0.2-13.3,3.9-24.8,8.6-36.6
		c3.8-9.6,6.9-19.5,10.6-29.2c3.5-9.4,7.4-18.7,11-28c2.6-6.6,4.9-13.3,7.4-19.9c3.7-9.8,7.5-19.7,11.2-29.5
		c2.5-6.6,5.2-13.2,7.7-19.8c3.7-9.9,7.3-19.7,11-29.6c2.7-7.3,5.3-14.6,7.9-21.8c1.4-3.9,2.6-7.8,4.1-11.7c1.1-2.8,3.1-4.3,6.6-4
		c6.6,0.5,13.3,0.4,20,0.5c6.7,0.1,6.7,0.1,6.7,6.7c0,37.8,0,75.6,0,113.4c0,22.1,0,44.3,0,66.4c0,0,0.1,0,0.1,0
		c0,59.8,0,119.5,0,179.3C763.5,807.3,763.1,807.8,756.8,807.8z"/>
	<path d="M738.2,248.7c-0.9,2.1-1,3.1-1.6,3.7c-7.2,6.9-14.4,13.8-21.7,20.6c-12.9,12.2-26.1,24.2-38.9,36.6
		c-33.2,32.2-66.3,64.5-99.4,96.7c-39.8,38.8-79.6,77.6-119.3,116.5c-2.3,2.3-4,5.6-5.1,8.7c-3.9,10.3-7.5,20.8-11.1,31.2
		c-2.6,7.6-4.8,15.4-7.3,23.1c-2.6,7.6-5.5,15.2-8.2,22.8c-1.5,4.3-2.7,8.8-4.5,13.1c-0.8,1.9-2.7,3.4-4.1,5.1
		c-0.7-1.8-1.8-3.5-2-5.4c-1.9-13.1-3.6-26.3-5.4-39.4c-0.2-1.2-0.6-2.3-0.7-3.4c-1.3-12.9-2.4-25.8-3.8-38.7
		c-1.6-14.9-2.7-29.8-5.5-44.5c-1.9-10.2,4.3-14.3,10.5-18.8c9.5-7,19.3-13.4,29-20.2c20.3-14.3,40.6-28.7,60.9-43.1
		c15.7-11.1,31.4-22.2,47.1-33.2c19.1-13.4,38.4-26.5,57.6-39.9c16.7-11.7,33.2-23.7,49.8-35.4c16.6-11.7,33.4-23.4,50-35.1
		c9.2-6.5,18.4-13,27.7-19.4C733.7,249.5,735.5,249.4,738.2,248.7z"/>
</g>
</svg>
